<svg width="43" height="35" viewBox="0 0 43 35" fill="none" xmlns="http://www.w3.org/2000/svg">
<path d="M18 13V29C18 29.5304 18.2026 30.0391 18.5633 30.4142C18.9239 30.7893 19.413 31 19.9231 31H35.9687L39.8245 34.5138C39.8291 34.519 39.8344 34.5236 39.8401 34.5275C40.1854 34.8326 40.6238 35.0001 41.0769 35C41.359 34.9995 41.6376 34.9346 41.893 34.81C42.2252 34.6508 42.5063 34.3954 42.7026 34.0744C42.8989 33.7534 43.0021 33.3804 43 33V13C43 12.4696 42.7974 11.9609 42.4367 11.5858C42.0761 11.2107 41.5869 11 41.0769 11H19.9231C19.413 11 18.9239 11.2107 18.5633 11.5858C18.2026 11.9609 18 12.4696 18 13Z" fill="#BDDDF9"/>
<rect x="22" y="16.9995" width="17" height="1" rx="0.5" fill="#3B63DA" fill-opacity="0.55"/>
<rect x="22" y="20.9995" width="17" height="1" rx="0.5" fill="#3B63DA" fill-opacity="0.55"/>
<rect x="22" y="24.9995" width="17" height="1" rx="0.5" fill="#3B63DA" fill-opacity="0.55"/>
<path d="M34.3794 2.41379V21.7241C34.3794 22.3643 34.125 22.9783 33.6724 23.4309C33.2197 23.8836 32.6057 24.1379 31.9656 24.1379H11.8255L6.98582 28.3787C6.97999 28.385 6.9734 28.3906 6.96621 28.3953C6.53278 28.7635 5.98255 28.9656 5.41384 28.9655C5.05972 28.9649 4.71006 28.8866 4.38948 28.7362C3.97251 28.544 3.61971 28.2358 3.37331 27.8484C3.1269 27.461 2.99731 27.0108 3.00004 26.5517V2.41379C3.00004 1.77362 3.25435 1.15966 3.70703 0.706984C4.1597 0.25431 4.77366 0 5.41384 0H31.9656C32.6057 0 33.2197 0.25431 33.6724 0.706984C34.125 1.15966 34.3794 1.77362 34.3794 2.41379Z" fill="white"/>
<rect x="8" y="6.99951" width="21" height="1.5" rx="0.75" fill="#BDDDF9" fill-opacity="0.3"/>
<rect x="8" y="11.9995" width="21" height="1.5" rx="0.75" fill="#BDDDF9" fill-opacity="0.3"/>
<g filter="url(#filter0_d_785_1556)">
<path d="M16.6562 14.6683V17.8843H16.0112V15.7925L15.1496 17.8843H14.6612L13.795 15.7925V17.8843H13.1499V14.6683H13.8825L14.9054 17.0595L15.9282 14.6683H16.6562ZM17.939 14.6683V17.8843H17.2939V14.6683H17.939ZM20.7648 14.6683V15.1889H19.9078V17.8843H19.2628V15.1889H18.4058V14.6683H20.7648ZM22.8941 17.8843L22.1846 16.6311H21.8805V17.8843H21.2354V14.6683H22.4426C22.6914 14.6683 22.9033 14.7128 23.0784 14.8019C23.2535 14.8879 23.384 15.0062 23.47 15.1567C23.5591 15.3041 23.6037 15.47 23.6037 15.6543C23.6037 15.8662 23.5422 16.0582 23.4194 16.2302C23.2965 16.3991 23.1137 16.5159 22.8711 16.5804L23.6405 17.8843H22.8941ZM21.8805 16.1473H22.4195C22.5946 16.1473 22.7252 16.1058 22.8112 16.0229C22.8972 15.9369 22.9402 15.8186 22.9402 15.6681C22.9402 15.5207 22.8972 15.407 22.8112 15.3272C22.7252 15.2442 22.5946 15.2028 22.4195 15.2028H21.8805V16.1473ZM26.1591 17.2715H24.8782L24.6662 17.8843H23.989L25.1454 14.6637H25.8964L27.0529 17.8843H26.371L26.1591 17.2715ZM25.984 16.7555L25.5186 15.4101L25.0533 16.7555H25.984Z" fill="#3B63DA"/>
</g>
<g filter="url(#filter1_d_785_1556)">
<path d="M16.6562 9.82991V13.0459H16.0112V10.9541L15.1496 13.0459H14.6612L13.795 10.9541V13.0459H13.1499V9.82991H13.8825L14.9054 12.2212L15.9282 9.82991H16.6562ZM17.939 10.3506V11.1569H19.0217V11.6683H17.939V12.5207H19.1599V13.0459H17.2939V9.82531H19.1599V10.3506H17.939ZM20.8703 9.82991C21.2082 9.82991 21.5046 9.89595 21.7596 10.028C22.0176 10.1601 22.2157 10.349 22.3539 10.5947C22.4952 10.8374 22.5659 11.12 22.5659 11.4425C22.5659 11.765 22.4952 12.0476 22.3539 12.2903C22.2157 12.5299 22.0176 12.7157 21.7596 12.8478C21.5046 12.9799 21.2082 13.0459 20.8703 13.0459H19.7461V9.82991H20.8703ZM20.8473 12.4976C21.1852 12.4976 21.4463 12.4055 21.6306 12.2212C21.8149 12.0369 21.907 11.7773 21.907 11.4425C21.907 11.1077 21.8149 10.8466 21.6306 10.6593C21.4463 10.4688 21.1852 10.3736 20.8473 10.3736H20.3912V12.4976H20.8473Z" fill="#3B63DA"/>
</g>
<g filter="url(#filter2_d_785_1556)">
<path d="M12.6992 18.4452C12.6997 18.1177 12.6134 17.8005 12.4555 17.5499C12.2977 17.2992 12.0786 17.1313 11.8369 17.0758C11.5952 17.0203 11.3467 17.0808 11.1352 17.2467C10.9237 17.4125 10.7631 17.6729 10.6816 17.9818H10.0974C9.68337 17.9818 6.44346 13.9433 6.15066 13.5523C5.85786 13.1613 5.69343 12.6309 5.69343 12.0779C5.69343 11.5249 5.85786 10.9946 6.15066 10.6035C6.44346 10.2125 6.84041 9.9928 7.25449 9.9928H7.60833L8.09699 10.9556C8.25911 11.2275 8.46506 11.4468 8.69962 11.5974C8.93418 11.7479 9.19106 11.8257 9.4513 11.8249H11.2129C11.3049 11.8249 11.3931 11.776 11.4582 11.6891C11.5232 11.6022 11.5598 11.4844 11.5598 11.3615V10.4348C11.5598 10.3119 11.5232 10.194 11.4582 10.1071C11.3931 10.0202 11.3049 9.97143 11.2129 9.97143C11.1208 9.97143 11.0326 10.0202 10.9676 10.1071C10.9025 10.194 10.866 10.3119 10.866 10.4348V10.8981H9.4513C9.2952 10.8986 9.14111 10.852 9.0004 10.7617C8.85969 10.6715 8.73614 10.5399 8.63885 10.3769L8.21888 9.52944L8.74531 8.57224C8.84255 8.4091 8.96609 8.27744 9.1068 8.18709C9.24751 8.09673 9.40163 8.05004 9.55776 8.0505H10.9724V8.51386C10.9724 8.63675 11.009 8.7546 11.074 8.8415C11.1391 8.9284 11.2273 8.97722 11.3193 8.97722C11.4113 8.97722 11.4996 8.9284 11.5646 8.8415C11.6297 8.7546 11.6662 8.63675 11.6662 8.51386V7.58714C11.6662 7.46425 11.6297 7.3464 11.5646 7.2595C11.4996 7.1726 11.4113 7.12379 11.3193 7.12379L9.55776 7.12379C9.29752 7.12294 9.04063 7.20069 8.80606 7.35122C8.5715 7.50175 8.36556 7.72115 8.20345 7.99304L7.60833 9.06609H7.25449C6.65637 9.06609 6.083 9.38339 5.66006 9.94823C5.23713 10.5131 4.99963 11.2791 4.99963 12.0779C4.99963 12.8767 5.23713 13.6427 5.66006 14.2076C6.083 14.7724 9.49933 18.9086 10.0974 18.9086H10.6816C10.7631 19.2175 10.9237 19.4779 11.1352 19.6437C11.3467 19.8096 11.5952 19.8701 11.8369 19.8146C12.0786 19.7591 12.2977 19.5912 12.4555 19.3405C12.6134 19.0899 12.6997 18.7727 12.6992 18.4452ZM11.3116 18.4452C11.3116 18.3536 11.3319 18.264 11.3701 18.1878C11.4082 18.1116 11.4624 18.0522 11.5258 18.0171C11.5892 17.982 11.6589 17.9729 11.7262 17.9907C11.7935 18.0086 11.8553 18.0527 11.9038 18.1176C11.9523 18.1824 11.9854 18.2649 11.9987 18.3548C12.0121 18.4447 12.0053 18.5378 11.979 18.6225C11.9527 18.7072 11.9083 18.7795 11.8512 18.8305C11.7942 18.8814 11.7271 18.9086 11.6585 18.9086C11.5665 18.9084 11.4784 18.8596 11.4133 18.7727C11.3483 18.6858 11.3117 18.5681 11.3116 18.4452Z" fill="#3B63DA"/>
</g>
<g filter="url(#filter3_d_785_1556)">
<path d="M28.3322 9.14489C28.3322 9.23953 28.3041 9.33205 28.2515 9.41074C28.199 9.48943 28.1242 9.55076 28.0368 9.58698C27.9494 9.6232 27.8532 9.63267 27.7604 9.61421C27.6676 9.59574 27.5823 9.55017 27.5154 9.48325C27.4485 9.41633 27.4029 9.33107 27.3844 9.23825C27.366 9.14542 27.3755 9.04921 27.4117 8.96178C27.4479 8.87434 27.5092 8.79961 27.5879 8.74703C27.6666 8.69445 27.7591 8.66638 27.8537 8.66638C27.9806 8.66638 28.1023 8.7168 28.192 8.80654C28.2818 8.89627 28.3322 9.01798 28.3322 9.14489ZM26.0993 8.66638C26.0047 8.66638 25.9122 8.69445 25.8335 8.74703C25.7548 8.79961 25.6935 8.87434 25.6573 8.96178C25.6211 9.04921 25.6116 9.14542 25.6301 9.23825C25.6485 9.33107 25.6941 9.41633 25.761 9.48325C25.8279 9.55017 25.9132 9.59574 26.006 9.61421C26.0988 9.63267 26.195 9.6232 26.2824 9.58698C26.3699 9.55076 26.4446 9.48943 26.4972 9.41074C26.5498 9.33205 26.5778 9.23953 26.5778 9.14489C26.5778 9.01798 26.5274 8.89627 26.4377 8.80654C26.3479 8.7168 26.2262 8.66638 26.0993 8.66638ZM29.6081 8.66638C29.5135 8.66638 29.4209 8.69445 29.3423 8.74703C29.2636 8.79961 29.2023 8.87434 29.166 8.96178C29.1298 9.04921 29.1203 9.14542 29.1388 9.23825C29.1573 9.33107 29.2028 9.41633 29.2698 9.48325C29.3367 9.55017 29.4219 9.59574 29.5147 9.61421C29.6076 9.63267 29.7038 9.6232 29.7912 9.58698C29.8786 9.55076 29.9533 9.48943 30.0059 9.41074C30.0585 9.33205 30.0865 9.23953 30.0865 9.14489C30.0865 9.01798 30.0361 8.89627 29.9464 8.80654C29.8567 8.7168 29.735 8.66638 29.6081 8.66638ZM32.0004 9.14489C32.0006 9.86088 31.8154 10.5647 31.4628 11.1879C31.1103 11.811 30.6025 12.3323 29.9887 12.7009C29.375 13.0696 28.6763 13.273 27.9606 13.2915C27.245 13.31 26.5367 13.1428 25.9048 12.8063L24.5471 13.2589C24.4347 13.2964 24.3141 13.3018 24.1988 13.2746C24.0835 13.2474 23.978 13.1886 23.8942 13.1048C23.8104 13.021 23.7516 12.9155 23.7244 12.8002C23.6972 12.6848 23.7026 12.5642 23.7401 12.4518L24.1927 11.094C23.8969 10.5378 23.7317 9.92159 23.7096 9.29202C23.6875 8.66246 23.8091 8.03613 24.0652 7.46059C24.3213 6.88505 24.7051 6.37542 25.1875 5.97038C25.67 5.56534 26.2383 5.27554 26.8494 5.12297C27.4606 4.97041 28.0984 4.95909 28.7146 5.08987C29.3308 5.22066 29.9091 5.49011 30.4056 5.87778C30.902 6.26545 31.3037 6.76114 31.58 7.32723C31.8564 7.89333 32.0001 8.51494 32.0004 9.14489ZM31.3624 9.14489C31.3623 8.60662 31.2383 8.07559 31.0001 7.5929C30.7619 7.11021 30.4159 6.6888 29.9888 6.36126C29.5617 6.03372 29.0649 5.80883 28.537 5.70401C28.0091 5.59918 27.4642 5.61722 26.9443 5.75673C26.4245 5.89623 25.9437 6.15347 25.5392 6.50854C25.1347 6.86361 24.8173 7.30699 24.6115 7.80437C24.4057 8.30176 24.3172 8.83982 24.3526 9.37692C24.388 9.91403 24.5465 10.4358 24.8159 10.9018C24.8385 10.9409 24.8525 10.9844 24.857 11.0294C24.8616 11.0743 24.8565 11.1198 24.8422 11.1626L24.345 12.654L25.8362 12.1567C25.8687 12.1456 25.9028 12.14 25.9371 12.14C25.9931 12.1401 26.0481 12.1549 26.0966 12.183C26.63 12.4917 27.2352 12.6544 27.8515 12.6548C28.4678 12.6552 29.0732 12.4932 29.607 12.1852C30.1408 11.8773 30.5841 11.4341 30.8923 10.9004C31.2004 10.3667 31.3626 9.7612 31.3624 9.14489Z" fill="#3B63DA"/>
</g>
<defs>
<filter id="filter0_d_785_1556" x="9.15039" y="10.6636" width="21.9023" height="11.2207" filterUnits="userSpaceOnUse" color-interpolation-filters="sRGB">
<feFlood flood-opacity="0" result="BackgroundImageFix"/>
<feColorMatrix in="SourceAlpha" type="matrix" values="0 0 0 0 0 0 0 0 0 0 0 0 0 0 0 0 0 0 127 0" result="hardAlpha"/>
<feOffset/>
<feGaussianBlur stdDeviation="2"/>
<feComposite in2="hardAlpha" operator="out"/>
<feColorMatrix type="matrix" values="0 0 0 0 0.231373 0 0 0 0 0.388235 0 0 0 0 0.854902 0 0 0 0.7 0"/>
<feBlend mode="normal" in2="BackgroundImageFix" result="effect1_dropShadow_785_1556"/>
<feBlend mode="normal" in="SourceGraphic" in2="effect1_dropShadow_785_1556" result="shape"/>
</filter>
<filter id="filter1_d_785_1556" x="9.25078" y="4.8252" width="19.415" height="13.2207" filterUnits="userSpaceOnUse" color-interpolation-filters="sRGB">
<feFlood flood-opacity="0" result="BackgroundImageFix"/>
<feColorMatrix in="SourceAlpha" type="matrix" values="0 0 0 0 0 0 0 0 0 0 0 0 0 0 0 0 0 0 127 0" result="hardAlpha"/>
<feOffset dx="1.10039"/>
<feGaussianBlur stdDeviation="2.5"/>
<feComposite in2="hardAlpha" operator="out"/>
<feColorMatrix type="matrix" values="0 0 0 0 0.231373 0 0 0 0 0.388235 0 0 0 0 0.854902 0 0 0 0.7 0"/>
<feBlend mode="normal" in2="BackgroundImageFix" result="effect1_dropShadow_785_1556"/>
<feBlend mode="normal" in="SourceGraphic" in2="effect1_dropShadow_785_1556" result="shape"/>
</filter>
<filter id="filter2_d_785_1556" x="0" y="6.12378" width="17.6992" height="22.7109" filterUnits="userSpaceOnUse" color-interpolation-filters="sRGB">
<feFlood flood-opacity="0" result="BackgroundImageFix"/>
<feColorMatrix in="SourceAlpha" type="matrix" values="0 0 0 0 0 0 0 0 0 0 0 0 0 0 0 0 0 0 127 0" result="hardAlpha"/>
<feOffset dy="4"/>
<feGaussianBlur stdDeviation="2.5"/>
<feComposite in2="hardAlpha" operator="out"/>
<feColorMatrix type="matrix" values="0 0 0 0 0.231373 0 0 0 0 0.388235 0 0 0 0 0.854902 0 0 0 0.7 0"/>
<feBlend mode="normal" in2="BackgroundImageFix" result="effect1_dropShadow_785_1556"/>
<feBlend mode="normal" in="SourceGraphic" in2="effect1_dropShadow_785_1556" result="shape"/>
</filter>
<filter id="filter3_d_785_1556" x="20.3055" y="1.69834" width="17.0961" height="17.0966" filterUnits="userSpaceOnUse" color-interpolation-filters="sRGB">
<feFlood flood-opacity="0" result="BackgroundImageFix"/>
<feColorMatrix in="SourceAlpha" type="matrix" values="0 0 0 0 0 0 0 0 0 0 0 0 0 0 0 0 0 0 127 0" result="hardAlpha"/>
<feOffset dx="1" dy="1.10039"/>
<feGaussianBlur stdDeviation="2.20078"/>
<feComposite in2="hardAlpha" operator="out"/>
<feColorMatrix type="matrix" values="0 0 0 0 0.231373 0 0 0 0 0.388235 0 0 0 0 0.854902 0 0 0 0.7 0"/>
<feBlend mode="normal" in2="BackgroundImageFix" result="effect1_dropShadow_785_1556"/>
<feBlend mode="normal" in="SourceGraphic" in2="effect1_dropShadow_785_1556" result="shape"/>
</filter>
</defs>
</svg>
